<?xml version="1.0" standalone="no"?>
<!DOCTYPE svg PUBLIC "-//W3C//DTD SVG 20010904//EN"
 "http://www.w3.org/TR/2001/REC-SVG-20010904/DTD/svg10.dtd">
<svg version="1.0" xmlns="http://www.w3.org/2000/svg"
 width="128.000000pt" height="128.000000pt" viewBox="0 0 128.000000 128.000000"
 preserveAspectRatio="xMidYMid meet">

<g transform="translate(0.000000,128.000000) scale(0.100000,-0.100000)"
fill="#000000" stroke="none">
<path d="M500 1265 c-240 -54 -437 -256 -486 -498 -15 -71 -15 -80 0 -102 19
-29 56 -33 78 -7 8 9 20 46 26 82 34 193 194 364 387 415 114 29 269 14 369
-37 53 -27 136 -87 136 -99 0 -5 -40 -9 -89 -9 -95 0 -121 -11 -121 -50 0 -43
23 -50 171 -50 l141 0 29 29 29 29 0 141 c0 146 -7 171 -48 171 -37 0 -47 -18
-52 -90 l-5 -70 -50 36 c-65 46 -106 67 -185 94 -85 28 -240 35 -330 15z"/>
<path d="M1188 623 c-8 -10 -20 -47 -26 -83 -35 -200 -210 -379 -409 -420 -82
-17 -224 -8 -296 20 -63 24 -178 97 -185 118 -3 9 20 12 86 12 96 0 122 11
122 50 0 43 -23 50 -171 50 l-141 0 -29 -29 -29 -29 0 -141 c0 -146 7 -171 48
-171 37 0 47 18 52 90 l5 70 50 -36 c68 -49 155 -88 242 -108 342 -77 689 150
759 497 15 71 15 80 0 102 -19 29 -56 33 -78 8z"/>
</g>
</svg>
