<?xml version="1.0" standalone="no"?>
<!DOCTYPE svg PUBLIC "-//W3C//DTD SVG 20010904//EN"
 "http://www.w3.org/TR/2001/REC-SVG-20010904/DTD/svg10.dtd">
<svg version="1.0" xmlns="http://www.w3.org/2000/svg"
 width="2133.000000pt" height="2133.000000pt" viewBox="0 0 2133.000000 2133.000000"
 preserveAspectRatio="xMidYMid meet">

<g transform="translate(0.000000,2133.000000) scale(0.100000,-0.100000)"
fill="#000000" stroke="none">
<path d="M10200 21323 c-1783 -80 -3493 -594 -5015 -1505 -1017 -609 -1950
-1408 -2715 -2325 -834 -999 -1486 -2159 -1900 -3381 -304 -895 -470 -1713
-547 -2692 -25 -321 -25 -1189 0 -1510 77 -979 243 -1797 547 -2692 374 -1106
929 -2134 1663 -3086 447 -580 1024 -1178 1604 -1662 999 -834 2159 -1486
3381 -1900 894 -304 1712 -470 2692 -547 321 -25 1189 -25 1510 0 979 77 1797
243 2692 547 1106 374 2134 929 3086 1663 582 448 1183 1029 1664 1607 838
1005 1484 2156 1898 3378 262 772 422 1489 510 2292 70 638 79 1394 24 2045
-181 2175 -1033 4251 -2432 5928 -224 268 -362 418 -661 718 -557 556 -1033
946 -1674 1370 -1588 1052 -3421 1650 -5357 1749 -174 9 -800 11 -970 3z
m1170 -1797 c871 -76 1621 -242 2390 -528 1052 -392 2010 -973 2850 -1728 195
-175 538 -520 706 -710 1225 -1385 1988 -3105 2183 -4920 40 -373 46 -498 46
-970 0 -472 -6 -597 -46 -970 -182 -1695 -866 -3325 -1954 -4655 -364 -444
-816 -896 -1260 -1260 -915 -748 -2000 -1322 -3125 -1650 -600 -175 -1187
-281 -1875 -337 -215 -18 -1035 -18 -1250 0 -251 21 -513 50 -720 82 -1710
260 -3297 1014 -4595 2180 -195 175 -538 520 -706 710 -1225 1385 -1988 3105
-2183 4920 -40 374 -46 497 -46 975 0 478 6 601 46 975 194 1812 952 3522
2178 4915 156 177 523 546 711 715 1300 1168 2885 1920 4595 2180 227 35 501
65 720 80 88 6 183 12 210 14 138 10 953 -3 1125 -18z"/>
<path d="M13435 14466 c-128 -25 -227 -64 -335 -134 -35 -22 -497 -476 -1245
-1224 l-1190 -1188 -1160 1161 c-638 638 -1185 1180 -1215 1203 -281 219 -668
244 -987 65 -107 -60 -262 -215 -322 -322 -166 -295 -157 -653 25 -934 24 -38
450 -472 1221 -1243 l1183 -1185 -1161 -1160 c-638 -638 -1180 -1185 -1203
-1215 -219 -281 -244 -668 -65 -987 60 -107 215 -262 322 -322 295 -166 653
-157 934 25 38 24 472 450 1243 1221 l1185 1183 1160 -1161 c638 -638 1185
-1180 1215 -1203 281 -219 668 -244 987 -65 107 60 262 215 322 322 166 295
157 653 -25 934 -24 38 -450 472 -1221 1243 l-1183 1185 1166 1165 c641 641
1188 1194 1216 1230 63 82 120 201 150 310 32 119 32 328 0 445 -45 162 -126
299 -248 416 -118 112 -238 180 -389 220 -102 27 -283 34 -380 15z"/>
</g>
</svg>
